<svg xmlns="http://www.w3.org/2000/svg" viewBox="0 0 128 128"><path fill="#fff" fill-rule="evenodd" d="M31 18L31 22L34 24L34 37L31 40L31 43L34 46L34 80L31 83L31 87L34 88L34 102L31 105L31 109L95 109L95 104L92 101L93 100L93 92L92 91L95 87L95 82L92 79L93 78L93 48L92 47L95 44L95 40L92 36L93 35L93 27L92 26L95 23L95 18ZM40 88L41 87L43 88L84 88L85 87L87 89L87 103L86 104L41 104L40 103ZM40 45L41 44L86 44L87 45L87 81L86 82L41 82L40 81ZM65 50L62 52L56 62L56 69L62 74L67 73L72 67L72 65L70 63L71 61L68 58ZM64 61L67 66L63 69L62 68L62 63ZM40 24L41 23L86 23L87 24L87 38L85 40L84 39L43 39L41 40L40 39Z"/></svg>