<svg xmlns="http://www.w3.org/2000/svg" viewBox="0 0 128 128"><path fill="#fff" fill-rule="evenodd" d="M39 48L37 47L29 52L26 52L26 56L30 57L34 54L40 53ZM48 37L48 106L62 93L66 97L67 103L69 105L70 109L74 109L88 103L88 101L86 100L85 95L83 94L82 88L80 85L81 84L101 84L101 83L98 80L96 80L73 58L71 58ZM55 51L58 52L82 75L84 75L86 77L85 79L84 78L73 78L72 79L73 85L81 99L77 102L74 102L71 98L71 96L68 92L69 90L65 83L63 83L55 93L53 92L54 91L54 52ZM26 33L27 38L29 38L31 40L39 41L39 37L36 35L31 34L29 32ZM76 31L73 31L69 34L63 35L64 39L67 41L71 38L77 37ZM64 19L58 18L58 21L55 26L54 31L57 32L60 31ZM39 19L40 27L44 32L46 32L48 29L46 27L45 21L43 18Z"/></svg>